<?xml version="1.0" encoding="utf-8"?>
<!-- Generator: Adobe Illustrator 23.1.0, SVG Export Plug-In . SVG Version: 6.00 Build 0)  -->
<svg version="1.1" id="Layer_1" xmlns="http://www.w3.org/2000/svg" xmlns:xlink="http://www.w3.org/1999/xlink" x="0px" y="0px"
	 viewBox="0 0 18 18" style="enable-background:new 0 0 18 18;" xml:space="preserve">
<style type="text/css">
	.st0{fill:#202020;}
</style>
<path class="st0" d="M8.1,16.6c0,0.4,0.4,0.9,0.9,0.9c0.5,0,0.9-0.4,0.9-0.9l0-6.5l6.5,0c0.5,0,0.9-0.4,0.9-0.9
	c0-0.5-0.4-0.9-0.9-0.9l-6.5,0l0-6.5C9.9,1.4,9.5,1,9,1C8.5,1,8.1,1.4,8.1,1.8l0,6.5l-6.5,0c-0.4,0-0.9,0.4-0.9,0.9
	c0,0.5,0.4,0.9,0.9,0.9l6.5,0L8.1,16.6z"/>
</svg>
